<?xml version="1.0" standalone="no"?>
<!DOCTYPE svg PUBLIC "-//W3C//DTD SVG 20010904//EN"
 "http://www.w3.org/TR/2001/REC-SVG-20010904/DTD/svg10.dtd">
<svg version="1.0" xmlns="http://www.w3.org/2000/svg"
 width="252.000000pt" height="101.000000pt" viewBox="0 0 252.000000 101.000000"
 preserveAspectRatio="xMidYMid meet">
<metadata>
Created by potrace 1.16, written by Peter Selinger 2001-2019
</metadata>
<g transform="translate(0.000000,101.000000) scale(0.100000,-0.100000)"
fill="#000000" stroke="none">
<path d="M300 1000 c0 -5 5 -10 10 -10 6 0 10 -8 10 -17 0 -35 -274 -707 -297
-729 -13 -12 -23 -24 -23 -28 0 -3 40 -6 90 -6 91 0 102 4 75 24 -14 10 -13
18 9 73 28 71 81 155 125 197 l31 30 0 -36 c0 -19 -7 -55 -15 -78 -23 -66 -19
-113 12 -151 45 -52 126 -76 153 -44 10 12 10 18 0 30 -16 20 -47 19 -58 -1
-8 -14 -10 -14 -22 1 -10 12 -14 49 -15 128 0 98 -3 116 -21 142 l-21 30 51
42 c28 23 92 66 141 96 177 109 197 122 222 155 14 18 27 50 30 70 4 31 0 42
-22 65 -32 31 -92 39 -81 11 17 -45 -57 -135 -290 -354 -56 -52 -113 -111
-128 -130 l-26 -35 30 75 c158 404 167 425 188 435 41 18 22 25 -68 25 -53 0
-90 -4 -90 -10z"/>
<path d="M1474 968 c-36 -17 -66 -81 -62 -135 2 -25 8 -48 13 -50 6 -2 9 14 7
40 -7 79 44 152 93 134 38 -15 31 -68 -17 -123 -28 -32 -121 -94 -141 -94 -4
0 0 16 8 36 8 20 15 37 15 39 0 1 -34 2 -75 1 -73 -1 -89 -7 -62 -23 11 -6 -4
-52 -67 -209 -81 -201 -110 -256 -166 -309 -29 -28 -27 -21 36 130 36 88 68
167 71 175 4 13 -7 15 -69 12 -78 -5 -90 -8 -69 -21 11 -7 11 -16 1 -47 -27
-85 -90 -200 -130 -239 l-41 -40 67 160 c36 88 68 167 71 175 4 13 -7 15 -69
12 -40 -3 -74 -8 -76 -13 -2 -5 -15 -9 -29 -9 -61 0 -212 -101 -264 -176 -57
-84 -35 -164 50 -180 41 -8 109 23 142 64 l19 25 0 -30 c0 -34 27 -63 59 -63
12 0 42 19 66 41 44 41 45 41 45 16 0 -32 24 -57 54 -57 13 0 44 18 70 41 44
39 46 40 46 16 0 -29 29 -57 59 -57 12 0 41 18 65 40 l43 40 14 -26 c25 -47
94 -68 142 -43 12 6 39 27 59 47 31 29 36 31 31 14 -7 -30 22 -72 50 -72 27 0
82 33 99 59 12 19 13 19 30 -10 42 -69 168 -66 262 6 l45 34 -21 -35 c-11 -19
-24 -34 -29 -34 -5 0 -9 -4 -9 -10 0 -5 24 -10 53 -10 67 0 76 9 129 131 47
109 110 205 150 225 16 9 28 10 28 4 0 -5 -23 -66 -50 -134 -64 -160 -68 -178
-41 -205 26 -26 45 -26 85 -2 36 23 142 158 132 169 -4 4 -14 -2 -22 -13 -52
-71 -106 -136 -110 -132 -3 2 18 60 46 127 27 67 50 131 50 141 0 10 -11 30
-24 45 -36 43 -85 39 -137 -11 l-40 -40 24 55 c19 42 29 54 43 52 130 -23 210
-7 264 54 25 29 30 43 30 87 0 89 -64 153 -181 183 -112 29 -210 3 -421 -112
-228 -124 -305 -144 -417 -107 l-52 16 40 36 c22 20 49 52 60 71 49 83 2 156
-75 118z m901 -62 c129 -60 152 -191 43 -248 -47 -25 -168 -32 -188 -12 -8 8
-3 32 20 88 16 42 30 78 30 80 0 1 -34 2 -75 2 -41 0 -75 -2 -75 -5 0 -2 6 -9
14 -15 12 -9 1 -43 -62 -206 -78 -197 -105 -251 -142 -285 -20 -18 -20 -18 -8
15 8 26 8 51 -2 112 -14 87 -10 97 40 118 34 14 39 36 10 45 -34 11 -73 -23
-140 -121 -35 -53 -66 -90 -68 -85 -2 6 -13 16 -24 22 -17 9 -25 6 -49 -17
-16 -15 -29 -33 -29 -38 0 -13 -81 -109 -86 -103 -2 2 25 75 61 162 36 86 65
163 65 169 0 8 -20 11 -67 8 -74 -5 -85 -8 -63 -22 10 -6 2 -7 -23 -3 -77 12
-250 -106 -302 -206 -13 -25 -39 -61 -59 -80 l-36 -35 93 232 c72 180 96 231
110 232 10 0 31 7 47 15 27 14 32 13 76 -10 53 -28 148 -34 232 -14 60 15 191
75 265 122 65 42 151 87 187 98 55 16 153 10 205 -15z m-1559 -367 c3 -6 -9
-50 -27 -97 -27 -71 -44 -97 -90 -145 -36 -35 -66 -57 -80 -57 -20 0 -21 3
-15 46 14 104 123 264 179 264 14 0 29 -5 33 -11z m759 2 c3 -6 -11 -50 -30
-100 -31 -75 -46 -98 -95 -145 -80 -77 -107 -76 -89 3 25 110 127 251 182 251
14 0 28 -4 32 -9z"/>
<path d="M1618 77 c4 -44 1 -61 -9 -68 -9 -6 8 -9 48 -9 53 0 64 3 77 22 l16
22 0 -22 c0 -19 5 -22 38 -22 69 0 87 51 27 76 -38 16 -46 34 -15 34 11 0 20
-4 20 -10 0 -5 6 -10 14 -10 9 0 12 7 9 21 -5 16 -12 19 -41 17 -21 -2 -39
-10 -46 -21 -11 -19 0 -32 50 -63 15 -10 17 -14 6 -25 -10 -11 -17 -9 -36 12
-13 14 -26 35 -30 46 -11 33 -38 51 -87 54 l-47 4 6 -58z"/>
<path d="M1900 123 c0 -7 5 -13 10 -13 15 0 13 -97 -2 -103 -7 -3 39 -6 103
-6 103 -1 118 1 124 17 6 16 7 16 16 0 13 -23 81 -24 99 -3 19 22 5 30 -21 11
-32 -22 -59 -5 -59 39 0 47 31 64 59 33 12 -12 23 -19 25 -17 10 9 -7 49 -19
49 -8 0 -20 3 -29 6 -22 8 -80 -51 -73 -75 5 -20 -45 -57 -63 -46 -16 10 -12
92 5 99 27 10 16 23 -20 22 -21 -1 -35 -6 -35 -13 0 -7 5 -13 10 -13 6 0 10
-20 10 -44 0 -25 -4 -48 -10 -51 -5 -3 -10 1 -10 9 0 17 -16 22 -22 7 -1 -4
-13 -12 -25 -15 -22 -7 -23 -5 -23 43 0 28 5 51 10 51 6 0 10 6 10 13 0 9 -12
13 -35 13 -21 -1 -35 -6 -35 -13z"/>
</g>
</svg>
